{"title":"Da Vincis Demons Season 3 S03 1080p BluRay x264-ROVERS [RiCK]","magnet":"magnet:?xt=urn:btih:38b10e17ffdc9bd0d8d14598d2f11a01f1467a63&dn=Da+Vincis+Demons+Season+3+S03+1080p+BluRay+x264-ROVERS+%5BRiCK%5D&tr=udp%3A%2F%2Ftracker.leechers-paradise.org%3A6969&tr=udp%3A%2F%2Fzer0day.ch%3A1337&tr=udp%3A%2F%2Fopen.demonii.com%3A1337&tr=udp%3A%2F%2Ftracker.coppersurfer.tk%3A6969&tr=udp%3A%2F%2Fexodus.desync.com%3A6969","uploader":"__rick_","categoryP":"video","categoryS":"hd___tv_shows","size":"41209771031","seeders":"1","leechers":"16","description":"Follows Leonardo Da Vinci during his early days in Florence, as a young artist, inventor and dreamer, trying to change the future. \r\n\r\nDa.Vincis.Demons.S03E03.1080p.BluRay.x264-ROVERS.mkv\r\nFormat                                   : Matroska\r\nFormat version                           : Version 4 / Version 2\r\nFile size                                : 3.97 GiB\r\nDuration                                 : 52 min 48 s\r\nOverall bit rate                         : 10.8 Mb/s\r\n\r\nVideo\r\nFormat                                   : AVC\r\nFormat profile                           : <a class=\"__cf_email__\" href=\"/cdn-cgi/l/email-protection\" data-cfemail=\"6820010f0028245c4659\">[email&#xA0;protected]</a><script data-cfhash=\"f9e31\" type=\"text/javascript\">/* <![CDATA[ */!function(t,e,r,n,c,a,p){try{t=document.currentScript||function(){for(t=document.getElementsByTagName('script'),e=t.length;e--;)if(t[e].getAttribute('data-cfhash'))return t[e]}();if(t&&(c=t.previousSibling)){p=t.parentNode;if(a=c.getAttribute('data-cfemail')){for(e='',r='0x'+a.substr(0,2)|0,n=2;a.length-n;n+=2)e+='%'+('0'+('0x'+a.substr(n,2)^r).toString(16)).slice(-2);p.replaceChild(document.createTextNode(decodeURIComponent(e)),c)}p.removeChild(t)}}catch(u){}}()/* ]]> */</script>\r\nFormat settings, CABAC                   : Yes\r\nFormat settings, ReFrames                : 4 frames\r\nCodec ID                                 : V_MPEG4/ISO/AVC\r\nDuration                                 : 52 min 48 s\r\nBit rate                                 : 10.1 Mb/s\r\nWidth                                    : 1 920 pixels\r\nHeight                                   : 1 080 pixels\r\nDisplay aspect ratio                     : 16:9\r\nFrame rate mode                          : Constant\r\nFrame rate                               : 23.976 FPS\r\nColor space                              : YUV\r\nChroma subsampling                       : 4:2:0\r\nBit depth                                : 8 bits\r\nBits/(Pixel*Frame)                       : 0.204\r\nStream size                              : 3.73 GiB\r\nLanguage                                 : English\r\nDefault                                  : Yes\r\nForced                                   : No\r\n\r\nAudio\r\nID                                       : 2\r\nFormat                                   : AC-3\r\nDuration                                 : 52 min 48 s\r\nBit rate mode                            : Constant\r\nBit rate                                 : 640 kb/s\r\nChannel(s)                               : 6 channels\r\nChannel positions                        : Front: L C R, Side: L R, LFE\r\nSampling rate                            : 48.0 kHz\r\nFrame rate                               : 31.250 FPS (1536 spf)\r\nCompression mode                         : Lossy\r\nStream size                              : 242 MiB (6%)\r\nLanguage                                 : English\r\n\r\nScreenshots:\r\n <a href=\"\nhttps://imgpile.com/i/nUd6dh\" rel=\"nofollow\" target=\"_NEW\">\nhttps://imgpile.com/i/nUd6dh</a> <a href=\"\nhttps://imgpile.com/i/nUdEmE\" rel=\"nofollow\" target=\"_NEW\">\nhttps://imgpile.com/i/nUdEmE</a> <a href=\"\nhttps://imgpile.com/i/nUdvSX\" rel=\"nofollow\" target=\"_NEW\">\nhttps://imgpile.com/i/nUdvSX</a>","last_updated":"2017-07-02T12:04:04.756Z","parsed":{"xt":"urn:btih:38b10e17ffdc9bd0d8d14598d2f11a01f1467a63","dn":"Da Vincis Demons Season 3 S03 1080p BluRay x264-ROVERS [RiCK]","tr":["udp://exodus.desync.com:6969","udp://open.demonii.com:1337","udp://tracker.coppersurfer.tk:6969","udp://tracker.leechers-paradise.org:6969","udp://zer0day.ch:1337"],"infoHash":"38b10e17ffdc9bd0d8d14598d2f11a01f1467a63","infoHashBuffer":{"type":"Buffer","data":[56,177,14,23,255,220,155,208,216,209,69,152,210,241,26,1,241,70,122,99]},"name":"Da Vincis Demons Season 3 S03 1080p BluRay x264-ROVERS [RiCK]","announce":["udp://exodus.desync.com:6969","udp://open.demonii.com:1337","udp://tracker.coppersurfer.tk:6969","udp://tracker.leechers-paradise.org:6969","udp://zer0day.ch:1337"],"urlList":[]}}